<svg width="11" height="101" viewBox="0 0 11 101" fill="none" xmlns="http://www.w3.org/2000/svg">
<g opacity="0.8">
<path d="M2.6499 100.92C2.7999 98.8699 2.81992 94.3799 2.81992 89.6499C2.81992 84.9199 2.77992 79.9499 2.81992 76.9399C2.81992 74.6199 2.81991 72.8399 2.84991 71.5199C2.86991 70.3999 2.85992 72.9899 2.81992 76.9399C2.81992 78.7099 2.8199 80.7899 2.8399 83.2499C2.9499 80.1799 3.0699 77.2399 3.1799 75.1299C3.1599 73.5899 3.14992 72.0299 3.13992 70.4399C3.09992 63.4599 3.00992 56.6899 3.03992 49.8099C3.03992 49.1999 3.0599 48.4099 3.1499 47.6099C3.1899 47.2099 3.25991 46.7999 3.34991 46.4299C3.43991 46.0599 3.56991 45.7099 3.71991 45.4099C4.01991 44.7999 4.42989 44.4099 4.8299 44.1499C4.92989 44.0799 5.02991 44.0299 5.12991 43.9799C5.16991 43.9599 5.2399 43.9199 5.2999 43.8899C5.3599 43.8599 5.41992 43.8299 5.47992 43.8099C5.71992 43.6999 5.94992 43.6199 6.13992 43.5499C5.93992 43.6399 5.73992 43.7299 5.53992 43.8199C5.43992 43.8699 5.34991 43.9199 5.24991 43.9699L5.1799 44.0099L5.12991 44.0399L5.0199 44.1099C4.7299 44.2899 4.46992 44.5099 4.22992 44.7899C3.74992 45.3399 3.4199 46.1799 3.2699 47.2599C3.1199 48.3299 3.11991 49.5599 3.12991 50.8199L3.15991 54.6199C3.19991 59.6899 3.24991 64.7599 3.30991 69.8299C3.30991 69.5499 3.3099 69.2799 3.3299 69.0099C3.3099 63.6799 3.28992 58.3399 3.28992 53.0099C3.28992 52.1099 3.27992 51.1799 3.28992 50.2499V53.0099C3.31992 55.3799 3.3899 57.6799 3.4299 60.2599C3.4399 61.8499 3.39992 63.6799 3.41992 65.2699C3.41992 66.5699 3.3699 67.7699 3.3399 69.0099V71.3999C3.3599 71.6299 3.36991 71.8799 3.37991 72.1399V72.1099C3.52991 71.1099 3.64991 65.5799 3.71991 59.8899C3.75991 57.0399 3.7799 54.1499 3.7999 51.7699C3.7999 51.1799 3.7999 50.6199 3.7999 50.0999C3.7999 49.6099 3.8099 49.1799 3.8299 48.8199C3.85989 48.0999 3.91992 47.6599 3.94992 47.4099C3.97992 47.2099 4.00992 47.0299 4.03992 46.8699C4.05992 46.7899 4.06991 46.7099 4.09991 46.6299C4.11991 46.5399 4.13992 46.4699 4.16992 46.3899C4.26992 46.0699 4.40989 45.7599 4.60989 45.4699C4.70989 45.3199 4.82992 45.1799 4.94992 45.0499C5.01992 44.9899 5.0799 44.9199 5.1499 44.8599L5.24991 44.7699L5.27991 44.7499C5.27991 44.7499 5.30992 44.7299 5.31992 44.7199L5.40991 44.6599C5.87991 44.3399 6.3999 44.0999 6.8999 43.8099C7.2399 43.6299 7.5399 43.4599 7.7999 43.2799C8.0599 43.0999 8.27992 42.9099 8.41992 42.6899C8.41992 42.6499 8.4399 42.5799 8.4899 42.4899C8.5399 42.3999 8.60992 42.2899 8.66992 42.1799C8.95992 41.8199 9.23991 41.4199 9.52991 40.9399C9.66991 40.6899 9.80991 40.4399 9.93991 40.1499C9.96991 40.0799 10.0099 40.0099 10.0399 39.9399C10.0399 39.8799 10.0399 39.8299 10.0399 39.7799C10.0399 39.6699 10.0199 39.5699 10.0099 39.4599C9.92992 39.3599 9.84991 39.2599 9.77991 39.1799C9.69991 39.0999 9.6299 39.0199 9.5499 38.9399C9.3999 38.7799 9.23989 38.6299 9.0799 38.5199C8.9199 38.3899 8.77991 38.1599 8.62991 37.8999C8.55991 37.7699 8.47991 37.6199 8.40991 37.4599C8.31991 37.3099 8.22992 37.1599 8.13992 36.9999C8.08992 36.9199 8.04991 36.8399 7.99991 36.7599C7.94991 36.6799 7.8899 36.6099 7.8399 36.5399C7.7399 36.3999 7.62992 36.2599 7.53992 36.1499C7.44992 36.0299 7.3499 35.9499 7.2699 35.8899C7.1899 35.8299 7.1299 35.8099 7.0899 35.8199C6.8199 35.9099 6.67989 35.9699 6.5799 35.9799C6.4799 35.9899 6.4199 35.9599 6.3299 35.8899C6.23989 35.8099 6.11992 35.6899 5.88992 35.5199C5.77992 35.4299 5.6399 35.3399 5.4599 35.2299C5.4199 35.1999 5.36992 35.1799 5.31992 35.1499C5.29992 35.1399 5.26991 35.1199 5.24991 35.1099H5.22992C5.23992 35.1099 5.24992 35.1099 5.25992 35.1099C5.26992 35.1099 5.28992 35.1099 5.25992 35.1099C5.23992 35.0899 5.1599 35.1399 5.0499 35.1699C4.9499 35.1999 4.81992 35.2099 4.75992 35.1699C4.60992 34.9399 4.48992 34.8699 4.28992 34.7599C4.18992 34.6999 4.07992 34.6499 3.94992 34.5499C3.81992 34.4599 3.68992 34.3199 3.53992 34.1299C3.52992 34.1199 3.53992 34.1199 3.53992 34.1099V34.0899L3.56992 34.0599C3.58992 34.0399 3.5999 34.0199 3.6199 33.9999C3.6499 33.9599 3.68992 33.9199 3.72992 33.8799C3.79992 33.7999 3.8799 33.7299 3.9599 33.6599C4.1199 33.5299 4.2599 33.4299 4.3999 33.3299C4.5299 33.2299 4.6499 33.1399 4.7699 32.9999C4.8299 32.9299 4.8899 32.8499 4.9599 32.7499C4.9899 32.6999 5.02992 32.6399 5.06992 32.5799C5.08992 32.5499 5.10991 32.5099 5.12991 32.4799L5.15991 32.4199C5.15991 32.4199 5.19991 32.3699 5.21991 32.3399C5.37991 32.1299 7.5499 29.8299 7.5499 29.8299C7.6699 29.7299 7.78991 29.6299 7.90991 29.5299C8.03991 29.4099 8.1699 29.2999 8.2999 29.1899C8.5499 28.9699 8.7899 28.7499 9.0199 28.5399C9.4799 28.1199 9.80991 27.6699 10.0999 27.2899C10.2399 27.0999 10.3799 26.8999 10.4899 26.6099C10.5999 26.3199 10.6599 25.9099 10.6299 25.5199C10.5999 25.1299 10.5099 24.8099 10.4099 24.5199C10.3099 24.2299 10.1999 23.9699 10.0699 23.7299C9.60992 23.2799 9.03992 22.9099 8.44992 22.5599C8.29992 22.4699 8.14991 22.3899 7.99991 22.2999C7.84991 22.2099 7.68992 22.1299 7.53992 22.0399C7.40992 21.9699 7.28991 21.8899 7.15991 21.8199C7.03991 21.7499 6.9199 21.6699 6.7999 21.5899C5.8399 20.9699 4.94989 20.1899 4.3299 19.2299C4.0199 18.7499 3.78991 18.2399 3.65991 17.7199C3.63991 17.6599 3.61989 17.5899 3.60989 17.5299C3.59989 17.4599 3.57992 17.3999 3.56992 17.3299C3.53992 17.1999 3.51991 17.0799 3.49991 16.9499C3.47991 16.8199 3.46992 16.6899 3.44992 16.5699C3.44992 16.5099 3.4299 16.4499 3.4299 16.3799V16.1899C3.4099 16.0599 3.4099 15.9399 3.3999 15.8099C3.3999 15.6799 3.3999 15.5499 3.3999 15.4299V15.2399C3.3999 15.1799 3.39991 15.1099 3.40991 15.0399C3.40991 14.9099 3.4199 14.7799 3.4299 14.6499C3.4799 14.1199 3.5399 13.5599 3.6499 12.9399C3.7099 12.5799 3.7499 12.2699 3.7999 11.9999C3.8499 11.7299 3.90992 11.4999 3.97992 11.3199C4.00992 11.2299 4.0499 11.0999 4.0799 10.9399C4.10989 10.7799 4.1399 10.5899 4.1799 10.3899C4.1999 10.2899 4.2199 10.1899 4.2399 10.0899C4.2599 9.9899 4.28991 9.8899 4.30991 9.7999C4.32991 9.6999 4.35992 9.6099 4.38992 9.5199C4.41992 9.4299 4.44992 9.35992 4.47992 9.28992L4.52991 9.5799C4.56991 9.48989 4.62991 9.34991 4.68991 9.21991C4.75991 9.07991 4.8299 8.94989 4.8699 8.85989C4.9599 8.67989 4.96992 8.78992 4.97992 8.88992C4.99992 9.09992 5.01991 9.28991 5.21991 9.05991L5.3699 8.81992L5.52991 8.5899C5.62991 8.4299 5.74989 8.28991 5.85989 8.12991C6.08989 7.83991 6.31992 7.53992 6.56992 7.25992C6.99992 6.51992 7.48991 5.83991 7.99991 5.15991C7.99991 5.02991 8.01992 4.88992 8.06992 4.72992C8.21992 4.50992 8.36991 4.2999 8.52991 4.0899C8.57991 3.7699 8.4899 3.5599 8.5199 3.3399C8.3699 2.6999 8.9499 1.4199 8.6499 0.989899C8.5399 0.879899 7.50992 1.73991 6.97992 1.90991C6.84992 1.92991 7.0399 1.46992 7.0899 1.13992C6.4899 1.73992 6.38989 1.5599 6.5799 1.0899C6.42989 1.2199 6.27991 1.34991 6.27991 1.34991C6.29991 1.23991 6.3399 0.899902 6.3399 0.899902C5.5299 1.5699 4.62992 2.3899 3.78992 3.5899C3.36992 4.1899 2.97991 4.8899 2.62991 5.6799C2.26991 6.4999 1.97991 7.42991 1.77991 8.37991C1.73991 8.57991 1.68992 8.81989 1.63992 9.0799C1.59992 9.3399 1.5599 9.62992 1.5199 9.91992C1.4499 10.4999 1.39991 11.0999 1.37991 11.5799C1.33991 12.0499 1.1999 13.0899 1.1799 13.4999C1.2199 13.8499 1.28991 14.0099 1.34991 14.1099C1.40991 14.2099 1.47992 14.2599 1.53992 14.3999C1.51992 14.7599 1.5199 15.1899 1.5199 15.6599C1.5399 16.1299 1.5599 16.6399 1.6199 17.1599C1.7299 18.1999 1.96991 19.2999 2.27991 20.1699C2.58991 20.9999 2.93991 21.6499 3.21991 21.9699C3.35991 22.1299 3.47991 22.2499 3.55991 22.2799C3.64991 22.3099 3.70992 22.2799 3.72992 22.1699C3.84992 22.3299 3.95991 22.4699 4.05991 22.5799C4.15991 22.6799 4.25991 22.7699 4.34991 22.8399C4.39991 22.8799 4.43992 22.9099 4.47992 22.9499C4.51992 22.9799 4.56989 22.9999 4.60989 23.0299C4.68989 23.0799 4.76991 23.1199 4.84991 23.1599C5.00991 23.2399 5.16989 23.2999 5.35989 23.3899C5.44989 23.4299 5.54991 23.4699 5.65991 23.5299C5.75991 23.5899 5.87992 23.6499 6.00992 23.7099C6.33992 23.8999 6.6899 24.0599 7.0499 24.2399C7.1599 24.2899 7.27992 24.3499 7.38992 24.3999C7.48992 24.4499 7.59992 24.4999 7.69992 24.5599C7.90992 24.6699 8.13989 24.8199 8.35989 24.9799C8.46989 25.0699 8.56991 25.1899 8.65991 25.3599C8.74991 25.5199 8.80992 25.7499 8.78992 25.9899C8.77992 26.2499 8.66991 26.4199 8.55991 26.5299C8.44991 26.6399 8.32991 26.7399 8.21991 26.8499C7.97991 27.0499 7.7499 27.2599 7.5199 27.4599C7.2799 27.6799 7.03991 27.8899 6.80991 28.0899C6.21991 28.6099 5.6499 29.1099 5.0799 29.5999C4.3499 30.2299 3.62992 30.8399 2.91992 31.4499C2.72992 31.6199 2.5299 31.7799 2.3399 31.9399L2.2699 31.9999L2.22992 32.0299C2.22992 32.0299 2.20992 32.0499 2.19992 32.0599L2.0899 32.1799L1.8699 32.4299C1.5799 32.7599 1.29992 33.0899 1.00992 33.4099C0.869918 33.5699 0.729895 33.7399 0.579895 33.8999L0.46991 34.0199L0.419922 34.0799V34.0999C0.419922 34.0999 0.419922 34.1099 0.419922 34.1199L0.449921 34.1599L0.659912 34.4999L0.869904 34.8399C0.939904 34.9599 0.999916 35.0499 1.06992 35.1499C1.19992 35.3499 1.33991 35.5699 1.46991 35.7499C1.59991 35.9399 1.7399 36.1199 1.8699 36.2999C2.0099 36.4699 2.1599 36.6399 2.2999 36.8099C2.3699 36.8999 2.44991 36.9699 2.52991 37.0499L2.7699 37.2799L2.88992 37.3999L2.94992 37.4599L3.0199 37.5099L3.28992 37.7099L3.55991 37.9099C3.64991 37.9799 3.7499 38.0299 3.8399 38.0899L4.12991 38.2599C4.22991 38.3199 4.30992 38.3699 4.44992 38.4399C4.65992 38.5499 4.86989 38.6499 5.0799 38.7599C5.63989 39.0399 6.18992 39.2799 6.75992 39.9099L6.8699 40.0399L6.8999 40.0699V40.0899H6.91992C6.91992 40.0899 6.91992 40.0899 6.91992 40.0999L6.88992 40.1899C6.84992 40.3199 6.7899 40.4299 6.7399 40.5399C6.6299 40.7499 6.48991 40.9199 6.34991 41.0699C6.05991 41.3599 5.72989 41.5499 5.35989 41.7899C5.24989 41.8599 5.1299 41.9299 5.0199 42.0199L4.8299 42.1499L4.6799 42.2499C4.6299 42.2899 4.5799 42.3199 4.5199 42.3699C4.1099 42.6899 3.67991 43.1199 3.30991 43.7399C2.93991 44.3599 2.62991 45.1999 2.46991 46.0999C2.29991 46.9999 2.24992 47.9099 2.22992 48.7699C2.20992 49.6299 2.22991 50.4599 2.24991 51.2599C2.26991 52.0599 2.2799 52.8699 2.2999 53.6699C2.3299 55.2699 2.3499 56.8699 2.3699 58.4499C2.4499 64.7699 2.47991 70.8799 2.46991 76.3899C2.46991 87.4099 2.3599 96.0299 2.3699 99.1799L2.56992 101L2.6499 100.92Z" fill="#050505"/>
</g>
</svg>
