<svg width="124" height="55" viewBox="0 0 124 55" fill="none" xmlns="http://www.w3.org/2000/svg">
<path d="M28.82 54.0499C28.69 53.9599 28.56 53.7199 28.52 53.5199C28.4 52.9099 29.3 46.7199 30.43 40.2999L31.11 36.4699L30.9 35.9699C30.55 35.1599 29.97 34.4699 29.08 33.8099C28.02 33.0199 25.52 31.7999 25.39 32.0099C25.36 32.0499 25.15 32.5599 24.89 33.1399C24.65 33.7199 24.13 34.8599 23.73 35.6799C22.87 37.4999 22.52 37.8099 21.92 37.3199C21.73 37.1599 21.68 37.0199 21.68 36.6599C21.7 36.0899 21.92 35.4599 22.87 33.4399C23.83 31.3599 23.82 31.4399 23.39 31.3599C20.52 30.8399 20.92 30.8599 15.02 30.8499C11.94 30.8499 7.50998 30.8099 5.16998 30.7699L0.919976 30.6899L0.609979 30.3899C0.00997868 29.8199 0.259971 29.1599 1.17997 28.8399C1.69997 28.6599 6.02998 28.6699 8.41998 28.8399C9.25998 28.8999 10.68 28.9999 11.59 29.0599C12.49 29.1099 13.91 29.2399 14.76 29.3199C15.93 29.4499 17.23 29.4799 20.38 29.4499L24.48 29.4199L25 28.2099C25.29 27.5399 25.66 26.7999 25.83 26.5599C26.47 25.6499 31.08 15.0099 34.17 7.30993C35.39 4.23993 36.02 2.82992 36.22 2.60992C36.38 2.43992 36.52 2.23993 36.52 2.14992C36.52 2.05992 36.61 1.76994 36.74 1.47994C37.11 0.629942 37.73 0.399924 38.24 0.929924C38.88 1.59992 38.87 1.81994 37.94 5.53994C36.79 10.1199 36.04 13.7299 34.68 21.1699C34.41 22.6199 33.96 25.0199 33.67 26.5099C33.37 27.9899 33.15 29.2399 33.15 29.2799C33.15 29.3199 33.5 29.3599 33.93 29.3599C34.77 29.3599 34.84 29.3199 34.84 28.7199C34.84 28.5499 34.98 27.7099 35.15 26.8399C35.7 24.1199 37.15 19.2699 38.44 15.8499C39.24 13.7299 41.01 9.50992 41.26 9.10992C41.5 8.74992 41.89 8.62992 42.19 8.82992C42.68 9.14992 42.64 9.34994 41.49 12.2299C38.62 19.4599 36.62 25.8099 36.27 28.8399L36.2 29.4099L36.4 29.1599C36.75 28.7299 37.84 26.9499 38.35 25.9499C38.79 25.1299 38.85 24.9399 38.85 24.3599C38.85 23.0399 39.4 21.6299 40.27 20.7399C40.9 20.0999 41.34 19.9899 41.64 20.4199C41.96 20.8799 41.78 21.4899 40.85 23.0799C40.18 24.2399 40.01 24.6999 40.01 25.3399V25.8199L40.49 25.3599C41.48 24.3999 41.99 23.6599 42.06 23.0699C42.21 21.9999 43.29 20.2899 43.83 20.2899C44.61 20.2899 44.63 20.8799 43.91 22.0599C43.55 22.6399 43.38 23.0299 43.38 23.2699C43.38 23.7699 43.62 24.6499 43.75 24.6099C43.96 24.5499 45.57 22.4499 45.69 22.0799C46.03 21.0199 47.19 20.1699 47.61 20.6699C47.73 20.8099 47.69 20.9599 47.31 21.6599C47.07 22.1199 46.87 22.5799 46.87 22.6999C46.87 22.8099 46.97 23.1399 47.09 23.4199L47.32 23.9299L47.63 23.5699C48.37 22.7199 50.32 20.7999 50.59 20.6599C50.74 20.5799 51.06 20.5099 51.29 20.5099C52.06 20.5099 52.37 21.2699 51.83 21.8299C51.64 22.0199 51.62 22.0199 51.42 21.8499C51.23 21.6799 51.21 21.6899 50.89 22.0499C50.55 22.4399 50.12 23.2199 49.99 23.6799C49.95 23.8199 50.17 23.5799 50.47 23.1199C50.93 22.4199 51.06 22.2999 51.28 22.3299C51.73 22.3899 51.79 22.6299 51.58 23.5499C51.47 24.0099 51.4 24.4599 51.43 24.5699C51.46 24.6899 51.93 24.0599 52.78 22.7899C54.15 20.7499 54.48 20.3999 54.9 20.6299C55.18 20.7799 55.16 21.1399 54.83 21.9199C54.46 22.8099 54.37 23.0499 54.41 23.0499C54.44 23.0499 54.74 22.5999 55.1 22.0499C55.97 20.7099 56.31 20.4799 56.64 20.9799C56.8 21.2199 56.78 21.3299 56.48 22.6299C56.3 23.3999 56.17 24.1799 56.18 24.3599L56.21 24.6899L56.66 24.2199C56.9 23.9599 57.11 23.6999 57.11 23.6399C57.11 23.1299 58.3 21.3799 58.85 21.0399C59.26 20.7899 59.8 20.7899 60.06 21.0399C60.26 21.2299 60.27 21.2199 61.06 19.7399C61.5 18.9199 61.98 17.9199 62.13 17.5099C62.48 16.5799 64.19 12.5599 64.61 11.6699C64.94 10.9799 65.22 10.7699 65.61 10.9099C65.73 10.9499 65.87 11.0999 65.92 11.2599C66 11.4999 65.92 11.7199 65.48 12.6799C63.36 17.1199 62.08 20.1499 61.33 22.4699C60.99 23.5299 60.49 25.5999 60.49 25.9099C60.49 26.1599 61.28 25.2099 61.91 24.2099C62.82 22.7399 63.44 21.4199 63.44 20.9699C63.44 20.7499 63.55 20.3499 63.68 20.0999C63.9 19.6799 63.96 19.6299 64.29 19.6299C64.64 19.6299 64.66 19.6499 64.64 19.9999C64.64 20.1999 64.59 20.5499 64.56 20.7699C64.49 21.1299 64.52 21.1999 64.82 21.4599C65.34 21.8999 65.34 22.2799 64.84 23.7699C64.6 24.4599 64.41 25.0699 64.41 25.1099C64.41 25.3499 66.35 22.7999 66.69 22.1299C67.39 20.6999 67.71 20.5199 68.57 20.9799C69.55 21.5199 69.68 22.6899 68.95 24.1699C67.92 26.2699 66.37 26.6599 66.11 24.8999L66.03 24.4099L65.52 25.1499C64.9 26.0499 64.17 26.7499 63.84 26.7499C63.03 26.7499 62.96 25.8399 63.64 23.7699C64.12 22.2999 64.16 22.0599 63.92 21.9499C63.79 21.9099 63.68 22.0799 63.42 22.6499C62.86 23.9499 61.87 25.8199 61.43 26.3999C61.03 26.9299 60.57 27.2699 60.24 27.2699C60.16 27.2699 59.95 27.1599 59.79 27.0199C59.52 26.7899 59.49 26.7199 59.52 26.0899C59.54 25.4499 59.98 23.5299 60.33 22.5299C60.6 21.7699 60.43 21.8999 59.98 22.8199C59.35 24.0799 58.49 25.4899 58.16 25.8199C57.64 26.3399 56.9 26.0999 56.9 25.4099V25.1699L56.49 25.3999C56.16 25.5899 56.02 25.5999 55.78 25.5199C55.32 25.3599 55.2 25.0199 55.26 24.0599L55.31 23.2299L55.07 23.6399C54.94 23.8699 54.61 24.4599 54.34 24.9699C53.71 26.1499 53.53 26.3599 53.17 26.3599C52.52 26.3599 52.38 25.7699 52.73 24.4299C52.82 24.0699 52.88 23.7499 52.87 23.7399C52.85 23.7199 52.61 24.0899 52.34 24.5399C51.72 25.5699 51.41 25.8499 51.04 25.6799C50.87 25.5999 50.74 25.4099 50.64 25.0899L50.5 24.6199L50.2 25.1399C49.65 26.0899 49.41 26.3499 49.09 26.3499C48.57 26.3499 48.41 25.9799 48.48 24.9699C48.51 24.5099 48.53 24.1299 48.51 24.1299C48.39 24.1299 47.4 25.5699 47.25 25.9499C47.02 26.5599 46.6 27.0799 46.35 27.0799C46.11 27.0799 45.82 26.7499 45.82 26.4899C45.82 26.3799 45.91 26.0799 46.03 25.8299C46.15 25.5799 46.24 25.2299 46.24 25.0699C46.24 24.6799 45.83 23.5699 45.71 23.6499C45.52 23.7799 43.67 26.3299 43.42 26.8199C43.07 27.4999 42.78 27.8199 42.47 27.8199C42.06 27.8199 42.01 27.5199 42.3 26.8199C42.52 26.2899 42.55 26.0799 42.5 25.5299C42.4 24.4599 42.35 24.4499 41.64 25.4099C40.62 26.7899 40.09 27.1399 39.44 26.8899C39.26 26.8299 39.12 26.7799 39.11 26.7999C38.85 27.1799 37.79 29.2399 37.83 29.2799C37.88 29.3299 57.06 29.1499 62.12 29.0399C63.65 29.0099 64.14 28.9599 65.45 28.6799C66.72 28.3999 69.31 27.7599 70.01 27.5499C70.25 27.4699 73.44 17.8399 73.44 17.1599C73.44 16.8399 73.63 16.1899 74.03 15.1599C74.34 14.3199 74.76 13.1399 74.94 12.5499C75.34 11.2399 75.64 10.8299 76.2 10.8399C76.85 10.8399 77.23 11.3099 77.12 11.9999C77.03 12.5899 75.49 16.9799 74.42 19.6999C73.91 21.0099 73.18 22.9599 72.79 24.0299C72.4 25.0999 72 26.2299 71.89 26.5299L71.69 27.0799L72.23 26.9199C72.99 26.6899 74.75 26.0499 76.51 25.3699C83.28 22.7199 87.84 18.9999 87.84 16.1199C87.84 14.4599 85.67 12.7199 82.29 11.6399C78.89 10.5499 75.17 9.98993 70.71 9.90993C62.27 9.74994 53.99 11.3399 48.23 14.2199C45.24 15.7199 43.67 17.2599 44.44 17.9599C44.56 18.0599 44.65 18.2699 44.65 18.4199C44.65 18.6699 44.62 18.6699 44.22 18.6199C43.72 18.5499 43.42 18.3099 43.21 17.8299C42.99 17.3099 43.03 16.9399 43.38 16.2399C44.38 14.2499 47.51 12.3199 52.88 10.3699C57.75 8.60993 64.24 7.54994 70.24 7.53994C76.98 7.51994 83.42 9.01994 86.85 11.3799C87.77 12.0099 88.83 13.1099 89.22 13.8499C89.57 14.4899 89.83 15.4499 89.83 16.0899C89.83 17.2699 89.04 19.0799 88.06 20.1399L87.79 20.4399H88.03C88.45 20.4399 89.2 20.9499 89.36 21.3399C89.44 21.5399 89.55 21.6999 89.59 21.6899C89.83 21.6899 90.18 21.3599 90.61 20.7799C91.24 19.9099 91.78 19.7599 92.06 20.3699C92.16 20.5999 92.13 20.7099 91.81 21.2399C91.18 22.2699 90.98 23.1099 91.16 23.9999C91.19 24.1899 91.26 24.3299 91.31 24.3299C91.35 24.3299 91.87 23.6799 92.45 22.8799C93.99 20.7799 94.22 20.5299 94.65 20.5299C94.93 20.5299 95.03 20.5899 95.12 20.7899C95.22 21.0099 95.2 21.1199 94.91 21.5599C94.44 22.2999 94.39 22.6299 94.69 23.4899C94.83 23.8999 94.97 24.2199 94.99 24.2199C95.02 24.2199 95.34 23.8599 95.68 23.4199C96.73 22.1099 96.9 21.9199 97.12 21.8499C97.44 21.7499 97.83 22.0599 97.95 22.5299C98.09 23.0199 98.41 23.4499 98.79 23.6399C99.58 24.0499 100.67 24.1599 104.51 24.2099C109.92 24.2799 114 24.1099 120.66 23.5299C122.9 23.3399 123.15 23.3699 123.46 23.8499C123.68 24.1899 123.52 24.5099 123.01 24.7199C122.41 24.9699 116.49 25.2299 107.09 25.3999C100.34 25.5299 99.34 25.4799 98.26 24.9899C97.55 24.6799 97.28 24.4099 97.09 23.8399C97.01 23.6099 96.91 23.4299 96.89 23.4299C96.78 23.4299 94.91 25.7099 94.64 26.1699C94.29 26.7599 94.02 26.9999 93.74 26.9599C93.35 26.8999 93.26 26.6299 93.42 26.0599C93.67 25.1899 93.67 24.8099 93.42 24.0799C93.29 23.6999 93.15 23.3899 93.11 23.3899C92.98 23.3899 91.38 25.9799 91.07 26.6799C90.77 27.3599 90.44 27.5999 90.07 27.4099C89.77 27.2499 89.73 26.9499 89.96 26.4299C90.29 25.7099 90.31 25.0299 90.06 24.1899C89.93 23.7899 89.83 23.2699 89.83 23.0199C89.83 22.7266 89.7133 22.5933 89.48 22.6199C89.15 22.6499 89.12 22.6999 89 23.2199C88.86 23.8599 88.2 25.2699 87.72 25.9699C87.4 26.4299 86.94 26.7599 86.61 26.7599C86.53 26.7599 86.39 26.6799 86.25 26.5699C86.2 26.5299 85.8 26.2899 85.85 25.1399C85.9 23.8599 86.49 22.2199 87.12 21.3299C87.4 20.9399 87.24 21.0299 86.35 21.7899C84.31 23.5099 80.6 25.4899 76.43 27.0799C75.04 27.5999 71.5 28.7699 71.29 28.7699C71.22 28.7699 71.14 28.8199 71.1 28.8699C71.06 28.9399 73.08 28.9499 76.82 28.9199C83.37 28.8499 104.79 29.0099 105.06 29.1299C105.33 29.2499 105.38 29.4799 105.2 29.8299C104.94 30.3299 104.56 30.3699 101.26 30.2599C98.13 30.1499 70.99 30.1799 70.73 30.2899C70.56 30.3599 69.65 33.0599 68.7 36.2699C67.91 38.9299 67.64 40.0599 67.62 40.7299C67.6 41.2399 67.55 41.3799 67.3 41.6499C66.83 42.1399 66.2 42.0499 65.99 41.4499C65.87 41.0999 65.91 40.8999 66.64 38.5899C66.9 37.7499 67.34 36.3199 67.6 35.4199C67.86 34.5199 68.33 33.0099 68.66 32.0699L69.23 30.3499H68.26C67.73 30.3499 65.03 30.3899 62.28 30.4499C59.52 30.5099 52.68 30.5999 47.08 30.6599L36.9 30.7599L36.39 31.2599C36.02 31.6299 35.81 31.7499 35.57 31.7499C35.18 31.7499 34.86 31.4799 34.77 31.0699L34.7 30.7699H32.94L32.87 31.3199C32.83 31.6199 32.65 32.8999 32.48 34.1399C32.2 36.1699 32.18 36.4499 32.3 36.9399C32.39 37.2899 32.44 38.0999 32.43 39.2199C32.43 41.2199 32.17 43.0999 31.33 47.3999C31.05 48.8399 30.72 50.5799 30.6 51.2499C30.3 52.9399 30.01 53.8399 29.73 54.0399C29.43 54.2499 29.12 54.2499 28.83 54.0399L28.82 54.0499ZM31.65 33.0999C31.77 32.2599 31.89 31.4099 31.93 31.2299L31.98 30.8799H28.92C27.24 30.8799 25.84 30.9199 25.8 30.9699C25.76 31.0199 26.04 31.1699 26.4 31.2999C28.09 31.9099 30.1 33.1799 30.93 34.1599C31.17 34.4499 31.38 34.6699 31.39 34.6499C31.41 34.6299 31.52 33.9299 31.64 33.0999H31.65ZM32.21 29.1599C32.24 29.0299 32.42 27.9499 32.6 26.7599C32.98 24.2599 33.56 20.6999 34.54 14.9399C35.28 10.5399 35.66 8.06992 35.65 7.64992C35.65 7.50992 35.02 8.95993 34.24 10.8699C32.3 15.6899 30.38 20.2499 28.82 23.8099C27.58 26.6399 26.47 29.2399 26.47 29.3499C26.47 29.3799 27.75 29.3999 29.31 29.3999H32.15L32.21 29.1599ZM67.95 23.8099C68.25 23.1699 68.36 22.4299 68.21 22.1599C68.13 22.0099 68.04 22.1599 67.78 22.9599C67.6 23.5099 67.43 24.1399 67.39 24.3699C67.32 24.7799 67.33 24.7799 67.5 24.5799C67.6 24.4699 67.8 24.1199 67.95 23.7999V23.8099ZM87.87 23.5699C88.14 22.9699 88.34 22.0399 88.14 22.3299C87.98 22.5499 87.43 23.8999 87.35 24.2799C87.3033 24.4866 87.3366 24.5133 87.45 24.3599C87.54 24.2299 87.73 23.8799 87.87 23.5699ZM59.11 22.9899C59.41 22.5499 59.58 22.2099 59.51 22.2399C59.37 22.2899 58.47 23.5599 58.47 23.7199C58.47 23.9099 58.59 23.7699 59.11 22.9899ZM106.67 30.0399C106.27 29.5999 106.81 28.9099 107.3 29.2299C107.57 29.4099 107.62 29.8499 107.4 30.0699C107.17 30.2999 106.89 30.2899 106.67 30.0399ZM97.92 19.0199C97.8 18.9399 97.69 18.6299 97.62 18.2199C97.54 17.6499 97.54 17.4299 97.72 16.7899C98.04 15.6399 98.77 13.8199 99 13.6099C99.3 13.3399 99.87 13.4299 100.04 13.7899C100.16 14.0299 100.12 14.2499 99.69 15.7399C98.84 18.6399 98.62 19.1499 98.22 19.1499C98.15 19.1499 98.02 19.0899 97.92 19.0199Z" fill="#070606"/>
</svg>
