<svg width="29" height="4" viewBox="0 0 29 4" fill="none" xmlns="http://www.w3.org/2000/svg">
<path d="M1.82996 2.20999L2.61995 3.29999H2.14995L1.41995 2.26001H1.34996V3.29999H0.959961V0.75H1.40996C1.74996 0.75 1.98995 0.810002 2.13995 0.940002C2.30995 1.08 2.38995 1.27 2.38995 1.5C2.38995 1.68 2.33995 1.84 2.22995 1.97C2.12995 2.1 1.98996 2.18 1.81996 2.22L1.82996 2.20999ZM1.34996 1.92001H1.46996C1.82996 1.92001 2.01996 1.78 2.01996 1.5C2.01996 1.24 1.83996 1.10999 1.48996 1.10999H1.34996V1.92001Z" fill="black"/>
<path d="M5.19003 1.10999H4.17003V1.72H5.16003V2.07999H4.17003V2.92999H5.19003V3.29001H3.78003V0.73999H5.19003V1.10001V1.10999Z" fill="black"/>
<path d="M7.96994 2.68008H6.87994L6.59995 3.30008H6.18994L7.44994 0.590088L8.66994 3.30008H8.24994L7.97993 2.68008H7.96994ZM7.80994 2.31009L7.42993 1.44009L7.02994 2.31009H7.80994Z" fill="black"/>
<path d="M10.14 0.73999V2.92999H10.89V3.29001H9.75V0.73999H10.14Z" fill="black"/>
<path d="M15.2699 1.10999H14.2499V1.72H15.2399V2.07999H14.2499V2.92999H15.2699V3.29001H13.8599V0.73999H15.2699V1.10001V1.10999Z" fill="black"/>
<path d="M17.9999 1.12015L17.6899 1.31015C17.6299 1.21015 17.5799 1.14014 17.5199 1.11014C17.4599 1.07014 17.3899 1.06015 17.3099 1.06015C17.1999 1.06015 17.1099 1.09015 17.0399 1.15015C16.9699 1.21015 16.9299 1.28015 16.9299 1.37015C16.9299 1.49015 17.0199 1.59017 17.2099 1.67017L17.4599 1.77014C17.6699 1.85014 17.8199 1.96014 17.9099 2.08014C17.9999 2.20014 18.0499 2.35014 18.0499 2.52014C18.0499 2.75014 17.9699 2.95016 17.8199 3.10016C17.6599 3.25016 17.4699 3.33014 17.2299 3.33014C17.0099 3.33014 16.8299 3.26016 16.6799 3.13016C16.5399 3.00016 16.4499 2.81014 16.4099 2.58014L16.7999 2.49014C16.8199 2.64014 16.8499 2.74014 16.8899 2.80014C16.9699 2.91014 17.0899 2.97015 17.2399 2.97015C17.3599 2.97015 17.4599 2.93016 17.5399 2.85016C17.6199 2.77016 17.6599 2.67016 17.6599 2.54016C17.6599 2.49016 17.6599 2.44015 17.6399 2.40015C17.6299 2.36015 17.5999 2.32016 17.5799 2.29016C17.5499 2.26016 17.5099 2.22016 17.4699 2.19016C17.4199 2.16016 17.3699 2.13016 17.2999 2.10016L17.0499 2.00015C16.6999 1.85015 16.5299 1.64016 16.5299 1.35016C16.5299 1.16016 16.5999 1.00015 16.7499 0.870148C16.8999 0.740148 17.0799 0.670166 17.2999 0.670166C17.5899 0.670166 17.8199 0.810159 17.9899 1.10016L17.9999 1.12015Z" fill="black"/>
<path d="M20.0598 1.10999V3.29999H19.6699V1.10999H19.0798V0.75H20.6399V1.10999H20.0498H20.0598Z" fill="black"/>
<path d="M23.1299 2.68008H22.0399L21.7599 3.30008H21.3499L22.6098 0.590088L23.8298 3.30008H23.4099L23.1399 2.68008H23.1299ZM22.9698 2.31009L22.5898 1.44009L22.1898 2.31009H22.9698Z" fill="black"/>
<path d="M25.47 1.10999V3.29999H25.08V1.10999H24.49V0.75H26.05V1.10999H25.46H25.47Z" fill="black"/>
<path d="M28.5899 1.10999H27.5699V1.72H28.5599V2.07999H27.5699V2.92999H28.5899V3.29001H27.1799V0.73999H28.5899V1.10001V1.10999Z" fill="black"/>
</svg>
