<svg width="47" height="47" viewBox="0 0 47 47" fill="none" xmlns="http://www.w3.org/2000/svg">
<path d="M1.70987 19.74H0.119873V21.33H1.70987V19.74Z" fill="black"/>
<path d="M1.70987 16.5601H0.119873V18.1501H1.70987V16.5601Z" fill="black"/>
<path d="M19.2398 2.21997V0.619995H17.6398H16.0498V2.21997V3.81H17.6398V5.40002H19.2398V3.81V2.21997Z" fill="black"/>
<path d="M3.29996 22.9299H1.70996V24.52H3.29996V22.9299Z" fill="black"/>
<path d="M14.4499 10.1799H12.8599V11.77H14.4499V10.1799Z" fill="black"/>
<path d="M1.70987 24.52H0.119873V26.11H1.70987V24.52Z" fill="black"/>
<path d="M46.32 30.89V29.2999V27.71H44.73V29.2999V30.89V32.4899H46.32V30.89Z" fill="black"/>
<path d="M4.89981 38.86H3.2998V40.46V42.05V43.64H4.89981H6.48981H8.0798V42.05V40.46V38.86H6.48981H4.89981Z" fill="black"/>
<path d="M43.1298 26.12H41.5398V27.71H43.1298V26.12Z" fill="black"/>
<path d="M16.05 45.23H14.46V46.82H16.05V45.23Z" fill="black"/>
<path d="M8.07986 35.6799H0.109863V46.83H11.2599V35.6799H8.06989H8.07986ZM9.67987 38.8599V45.2299H1.70987V37.2599H9.67987V38.8499V38.8599Z" fill="black"/>
<path d="M3.29987 11.78H11.2699V0.630005H0.119873V11.78H3.30988H3.29987ZM1.70987 8.59003V2.21997H9.67987V10.19H1.70987V8.59998V8.59003Z" fill="black"/>
<path d="M28.7999 2.21997V0.619995H27.2V2.21997V3.81H28.7999V2.21997Z" fill="black"/>
<path d="M6.48981 8.59009H8.0798V7.00006V5.40009V3.81006H6.48981H4.89981H3.2998V5.40009V7.00006V8.59009H4.89981H6.48981Z" fill="black"/>
<path d="M31.9799 3.81V2.21997H33.5799V0.619995H31.9799H30.3899V2.21997V3.81V5.40002H31.9799V3.81Z" fill="black"/>
<path d="M41.5399 29.2999V27.71H39.95V29.2999V30.89H41.5399V29.2999Z" fill="black"/>
<path d="M35.1699 42.05H33.5798V43.6401H35.1699V42.05Z" fill="black"/>
<path d="M12.8599 40.46V42.05H14.4599V40.46V38.86H12.8599V40.46Z" fill="black"/>
<path d="M46.32 38.86H44.73V40.45H46.32V38.86Z" fill="black"/>
<path d="M11.2699 32.49H9.67993V34.08H11.2699V32.49Z" fill="black"/>
<path d="M46.32 34.0801H44.73V35.67H46.32V34.0801Z" fill="black"/>
<path d="M44.7299 37.27H43.1399V38.86H44.7299V37.27Z" fill="black"/>
<path d="M35.1699 14.96H33.5798V16.5499H35.1699V14.96Z" fill="black"/>
<path d="M36.7599 35.6799H35.1699V37.27H36.7599V35.6799Z" fill="black"/>
<path d="M33.5798 29.2999H28.7998V32.4899H30.3898V35.6799H28.7998V37.27H30.3898V38.8599H31.9798V40.45H35.1698V42.0399H36.7598V40.45H38.3498V42.0399H36.7598V43.6299H35.1698V45.2199H33.5798V46.8099H36.7698V45.2199H38.3598V43.6299H39.9498V45.2199H38.3598V46.8099H41.5498V43.6199H43.1398V45.21H44.7298V43.6199H46.3198V42.03H44.7298V40.4399H43.1398V38.8499H41.5498V35.6599H43.1398V34.0699H44.7298V32.4799H43.1398V30.89H41.5498V34.08H39.9598V30.89H38.3698V32.4799H36.7798V30.89H38.3698V29.2999H35.1798V27.71H33.5898V29.2999H33.5798ZM41.5398 42.0499H39.9498V40.46H41.5398V42.0499ZM38.3598 34.08V38.8599H33.5798V34.08H38.3598Z" fill="black"/>
<path d="M19.2299 43.64H17.6399V45.23H19.2299V43.64Z" fill="black"/>
<path d="M41.5399 22.9301H39.95V24.5201H41.5399H43.14V22.9301V21.3401H41.5399V22.9301Z" fill="black"/>
<path d="M30.3899 38.86H28.7999H27.1999H25.6099V37.2701H27.1999V35.6801V34.0801H25.6099V32.4901H27.1999V30.8901H25.6099V29.3H24.0199V30.8901V32.4901V34.0801V35.6801H25.6099V37.2701H24.0199V35.6801H22.4199V34.0801V32.4901H20.8299H19.2399V30.8901H17.6399V32.4901H16.0499H14.4599V34.0801H12.8599V35.6801V37.2701H14.4599V38.86H16.0499V37.2701V35.6801V34.0801H17.6399V35.6801V37.2701V38.86V40.4601H16.0499V42.05V43.6401H17.6399V42.05H19.2399V40.4601H20.8299V38.86H19.2399V37.2701H20.8299H22.4199V38.86V40.4601H24.0199V38.86H25.6099V40.4601H24.0199V42.05V43.6401V45.23H22.4199V43.6401V42.05V40.4601H20.8299V42.05V43.6401V45.23H19.2399V46.8301H20.8299H22.4199H24.0199H25.6099V45.23H27.1999V43.6401H25.6099V42.05V40.4601H27.1999H28.7999V42.05H27.1999V43.6401H28.7999V45.23H30.3899V46.8301H31.9799V45.23V43.6401V42.05V40.4601H30.3899V38.86Z" fill="black"/>
<path d="M33.57 10.1799H31.98V11.77H33.57V10.1799Z" fill="black"/>
<path d="M44.7299 16.56V14.96H43.1399V13.37H41.5399H39.9499V14.96H38.3599V16.56H39.9499H41.5399H43.1399V18.15H41.5399H39.9499H38.3599V19.74H36.7599H35.1699V18.15H33.5799V16.56H31.9799H30.3899V14.96H28.7999H27.1999V16.56H25.6099V14.96V13.37H27.1999H28.7999H30.3899V11.78V10.18H28.7999V11.78H27.1999V10.18H25.6099V8.59003H27.1999V7H28.7999V8.59003H30.3899V7V5.40002H28.7999H27.1999H25.6099V3.81H24.0199H22.4199V2.21997H20.8299V3.81V5.40002H22.4199H24.0199V7H25.6099V8.59003H24.0199V10.18H25.6099V11.78H24.0199V13.37H22.4199V14.96H24.0199V16.56V18.15H22.4199H20.8299H19.2399H17.6399V16.56H19.2399H20.8299V14.96V13.37H19.2399V11.78H17.6399V10.18V8.59003H19.2399H20.8299V7V5.40002H19.2399V7H17.6399H16.0499V5.40002H14.4599V3.81H12.8599V5.40002V7H14.4599V8.59003V10.18H16.0499V11.78V13.37H17.6399V14.96H16.0499V16.56H14.4599V14.96H12.8599V16.56V18.15H14.4599V19.74H16.0499H17.6399H19.2399V21.34V22.93H20.8299V21.34H22.4199V19.74H24.0199H25.6099V21.34V22.93H24.0199V24.52H25.6099V26.12H27.1999V24.52V22.93V21.34H28.7999V19.74V18.15H30.3899V19.74H31.9799H33.5799V21.34V22.93H35.1699V24.52H36.7599V26.12H35.1699V27.71H36.7599H38.3599V26.12H39.9499V24.52H38.3599V22.93H36.7599V21.34H38.3599V22.93H39.9499V21.34V19.74H41.5399H43.1399V21.34H44.7299H46.3199V19.74V18.15H44.7299V16.56Z" fill="black"/>
<path d="M39.9499 3.81006H38.3599V5.40009V7.00006V8.59009H39.9499H41.5399H43.1399V7.00006V5.40009V3.81006H41.5399H39.9499Z" fill="black"/>
<path d="M44.7299 0.619995H35.1699V11.77H46.3199V0.619995H44.7299ZM44.7299 3.81V10.18H36.7599V2.21002H44.7299V3.79999V3.81Z" fill="black"/>
<path d="M22.4199 27.71H20.8298V29.2999H22.4199V27.71Z" fill="black"/>
<path d="M33.57 7H31.98V8.59003H33.57V7Z" fill="black"/>
<path d="M20.8297 10.1799H19.2397V11.77H20.8297V10.1799Z" fill="black"/>
<path d="M22.4199 11.78H20.8298V13.37H22.4199V11.78Z" fill="black"/>
<path d="M31.9799 13.37H30.3899V14.96H31.9799V13.37Z" fill="black"/>
<path d="M22.4199 8.59009H20.8298V10.1801H22.4199V8.59009Z" fill="black"/>
<path d="M24.0099 10.1799H22.4199V11.77H24.0099V10.1799Z" fill="black"/>
<path d="M38.3498 16.5601H36.7598V18.1501H38.3498V16.5601Z" fill="black"/>
<path d="M24.0099 26.12H22.4199V27.71H24.0099V26.12Z" fill="black"/>
<path d="M17.6398 29.3H16.0498V30.8901H17.6398V29.3Z" fill="black"/>
<path d="M17.6399 27.71H19.2299V26.12H20.8199V24.53H19.2299V22.94H17.6399V21.35H11.2699V22.94H9.67987V24.53H11.2699V26.12H8.07986V22.93H9.66989V21.34H11.2599V19.75H9.66989V18.16H11.2599V16.57H9.66989V14.98H8.07986V13.39H4.88989V14.98H6.47989V16.57H4.88989V14.98H3.29987V18.17H1.70987V19.76H3.29987V22.95H6.48987V26.14H3.29987V27.73H4.88989V29.32H1.69989V27.73H0.109863V34.1H8.07986V32.51H9.66989V30.92H11.2599V29.33H6.47989V27.74H11.2599V29.33H12.8499V30.92H14.4399V29.33H16.0299V27.74H17.6199L17.6399 27.71ZM4.89987 19.74V18.15H8.08987V21.34H6.49988V19.75H4.90988L4.89987 19.74ZM14.4599 26.12V27.71H12.8699V22.93H16.0599V24.52H17.6499V26.11H14.4599V26.12Z" fill="black"/>
<path d="M12.8599 14.96V13.37H11.2699H9.67993V14.96H11.2699H12.8599Z" fill="black"/>
<path d="M24.0099 7H22.4199V8.59003H24.0099V7Z" fill="black"/>
<path d="M27.2 29.3H28.7999V27.7101H30.39V26.1201H31.9799V27.7101H33.5799V26.1201V24.5201H31.9799H30.39V22.9301V21.3401H28.7999V22.9301V24.5201V26.1201H27.2V27.7101V29.3Z" fill="black"/>
</svg>
